<mxfile host="Electron" agent="Mozilla/5.0 (Windows NT 10.0; Win64; x64) AppleWebKit/537.36 (KHTML, like Gecko) draw.io/27.0.9 Chrome/134.0.6998.205 Electron/35.4.0 Safari/537.36" version="27.0.9">
  <diagram name="Use Case Diagram" id="0">
    <mxGraphModel dx="9152" dy="4375" grid="1" gridSize="10" guides="1" tooltips="1" connect="1" arrows="1" fold="1" page="1" pageScale="1" pageWidth="827" pageHeight="1169" math="0" shadow="0">
      <root>
        <mxCell id="0" />
        <mxCell id="1" parent="0" />
        <mxCell id="2" value="a" style="swimlane" parent="1" vertex="1">
          <mxGeometry x="-670" y="90" width="3000" height="2350" as="geometry" />
        </mxCell>
        <mxCell id="3" value="Login" style="ellipse" parent="2" vertex="1">
          <mxGeometry x="1240" y="939" width="120" height="50" as="geometry" />
        </mxCell>
        <mxCell id="4" value="View Student Class Panel" style="ellipse" parent="2" vertex="1">
          <mxGeometry x="1570" y="109" width="150" height="50" as="geometry" />
        </mxCell>
        <mxCell id="5" value="View Attendance" style="ellipse" parent="2" vertex="1">
          <mxGeometry x="1657.5" y="190" width="150" height="50" as="geometry" />
        </mxCell>
        <mxCell id="6" value="View Educational Status &amp; History" style="ellipse" parent="2" vertex="1">
          <mxGeometry x="1680" y="290" width="220" height="50" as="geometry" />
        </mxCell>
        <mxCell id="7" value="View Payments" style="ellipse" parent="2" vertex="1">
          <mxGeometry x="1765" y="370" width="150" height="50" as="geometry" />
        </mxCell>
        <mxCell id="8" value="Make Payment" style="ellipse" parent="2" vertex="1">
          <mxGeometry x="2210" y="395" width="150" height="50" as="geometry" />
        </mxCell>
        <mxCell id="16" value="&lt;&lt;include&gt;&gt;" style="dashed=1;endArrow=open;" parent="2" source="4" target="3" edge="1">
          <mxGeometry relative="1" as="geometry" />
        </mxCell>
        <mxCell id="17" value="&lt;&lt;include&gt;&gt;" style="dashed=1;endArrow=open;" parent="2" source="5" target="3" edge="1">
          <mxGeometry relative="1" as="geometry" />
        </mxCell>
        <mxCell id="18" value="&lt;&lt;include&gt;&gt;" style="dashed=1;endArrow=open;" parent="2" source="6" target="3" edge="1">
          <mxGeometry relative="1" as="geometry" />
        </mxCell>
        <mxCell id="19" value="&lt;&lt;include&gt;&gt;" style="dashed=1;endArrow=open;" parent="2" source="7" target="3" edge="1">
          <mxGeometry relative="1" as="geometry" />
        </mxCell>
        <mxCell id="20" value="&lt;&lt;include&gt;&gt;" style="dashed=1;endArrow=open;" parent="2" source="8" target="3" edge="1">
          <mxGeometry relative="1" as="geometry" />
        </mxCell>
        <mxCell id="MAx36Xw8eOmmi-8hxrpc-20" value="Teacher" style="shape=umlActor;" parent="2" vertex="1">
          <mxGeometry x="850" y="99" width="50" height="80" as="geometry" />
        </mxCell>
        <mxCell id="MAx36Xw8eOmmi-8hxrpc-28" value="View teacher’s classes" style="ellipse" parent="2" vertex="1">
          <mxGeometry x="1100" y="149" width="210" height="50" as="geometry" />
        </mxCell>
        <mxCell id="MAx36Xw8eOmmi-8hxrpc-30" value="View Enrolled students " style="ellipse" parent="2" vertex="1">
          <mxGeometry x="1020" y="220" width="210" height="50" as="geometry" />
        </mxCell>
        <mxCell id="MAx36Xw8eOmmi-8hxrpc-31" value="View Teacher Class Panel" style="ellipse" parent="2" vertex="1">
          <mxGeometry x="1250" y="70" width="150" height="50" as="geometry" />
        </mxCell>
        <mxCell id="MAx36Xw8eOmmi-8hxrpc-36" style="endArrow=none;" parent="2" source="MAx36Xw8eOmmi-8hxrpc-31" target="MAx36Xw8eOmmi-8hxrpc-20" edge="1">
          <mxGeometry relative="1" as="geometry">
            <mxPoint x="1810" y="319" as="sourcePoint" />
            <mxPoint x="1997" y="289" as="targetPoint" />
          </mxGeometry>
        </mxCell>
        <mxCell id="MAx36Xw8eOmmi-8hxrpc-38" style="endArrow=none;" parent="2" source="MAx36Xw8eOmmi-8hxrpc-30" target="MAx36Xw8eOmmi-8hxrpc-20" edge="1">
          <mxGeometry relative="1" as="geometry">
            <mxPoint x="2170" y="209" as="sourcePoint" />
            <mxPoint x="2107" y="329" as="targetPoint" />
          </mxGeometry>
        </mxCell>
        <mxCell id="MAx36Xw8eOmmi-8hxrpc-33" value="Grading Student " style="ellipse" parent="2" vertex="1">
          <mxGeometry x="1020" y="319" width="150" height="50" as="geometry" />
        </mxCell>
        <mxCell id="MAx36Xw8eOmmi-8hxrpc-39" style="endArrow=none;" parent="2" source="MAx36Xw8eOmmi-8hxrpc-33" target="MAx36Xw8eOmmi-8hxrpc-20" edge="1">
          <mxGeometry relative="1" as="geometry">
            <mxPoint x="1890" y="339" as="sourcePoint" />
            <mxPoint x="2077" y="309" as="targetPoint" />
          </mxGeometry>
        </mxCell>
        <mxCell id="MAx36Xw8eOmmi-8hxrpc-32" value="View Class Attendance " style="ellipse" parent="2" vertex="1">
          <mxGeometry x="860" y="409" width="240" height="50" as="geometry" />
        </mxCell>
        <mxCell id="MAx36Xw8eOmmi-8hxrpc-40" style="endArrow=none;" parent="2" source="MAx36Xw8eOmmi-8hxrpc-32" target="MAx36Xw8eOmmi-8hxrpc-20" edge="1">
          <mxGeometry relative="1" as="geometry">
            <mxPoint x="1960" y="379" as="sourcePoint" />
            <mxPoint x="2147" y="349" as="targetPoint" />
          </mxGeometry>
        </mxCell>
        <mxCell id="MAx36Xw8eOmmi-8hxrpc-41" value="&lt;&lt;include&gt;&gt;" style="dashed=1;endArrow=open;exitX=1;exitY=0.5;exitDx=0;exitDy=0;" parent="2" source="3" target="MAx36Xw8eOmmi-8hxrpc-31" edge="1">
          <mxGeometry relative="1" as="geometry">
            <mxPoint x="1760" y="199" as="sourcePoint" />
            <mxPoint x="2117" y="155" as="targetPoint" />
          </mxGeometry>
        </mxCell>
        <mxCell id="MAx36Xw8eOmmi-8hxrpc-42" value="&lt;&lt;include&gt;&gt;" style="dashed=1;endArrow=open;exitX=1;exitY=0.5;exitDx=0;exitDy=0;" parent="2" source="3" target="MAx36Xw8eOmmi-8hxrpc-30" edge="1">
          <mxGeometry relative="1" as="geometry">
            <mxPoint x="1790" y="129" as="sourcePoint" />
            <mxPoint x="2147" y="85" as="targetPoint" />
          </mxGeometry>
        </mxCell>
        <mxCell id="MAx36Xw8eOmmi-8hxrpc-43" value="&lt;&lt;include&gt;&gt;" style="dashed=1;endArrow=open;exitX=1;exitY=0.5;exitDx=0;exitDy=0;" parent="2" source="3" target="MAx36Xw8eOmmi-8hxrpc-30" edge="1">
          <mxGeometry relative="1" as="geometry">
            <mxPoint x="1810" y="209" as="sourcePoint" />
            <mxPoint x="2167" y="165" as="targetPoint" />
          </mxGeometry>
        </mxCell>
        <mxCell id="MAx36Xw8eOmmi-8hxrpc-44" value="&lt;&lt;include&gt;&gt;" style="dashed=1;endArrow=open;exitX=1;exitY=1;exitDx=0;exitDy=0;" parent="2" source="3" target="MAx36Xw8eOmmi-8hxrpc-28" edge="1">
          <mxGeometry relative="1" as="geometry">
            <mxPoint x="1710" y="259" as="sourcePoint" />
            <mxPoint x="2067" y="215" as="targetPoint" />
          </mxGeometry>
        </mxCell>
        <mxCell id="MAx36Xw8eOmmi-8hxrpc-45" value="&lt;&lt;include&gt;&gt;" style="dashed=1;endArrow=open;exitX=1;exitY=1;exitDx=0;exitDy=0;" parent="2" source="3" target="MAx36Xw8eOmmi-8hxrpc-32" edge="1">
          <mxGeometry relative="1" as="geometry">
            <mxPoint x="1730" y="369" as="sourcePoint" />
            <mxPoint x="2087" y="325" as="targetPoint" />
          </mxGeometry>
        </mxCell>
        <mxCell id="MAx36Xw8eOmmi-8hxrpc-37" style="endArrow=none;" parent="2" source="MAx36Xw8eOmmi-8hxrpc-28" target="MAx36Xw8eOmmi-8hxrpc-20" edge="1">
          <mxGeometry relative="1" as="geometry">
            <mxPoint x="1880" y="299" as="sourcePoint" />
            <mxPoint x="2340" y="59" as="targetPoint" />
          </mxGeometry>
        </mxCell>
        <mxCell id="MAx36Xw8eOmmi-8hxrpc-77" value="Edit personnel" style="ellipse" parent="2" vertex="1">
          <mxGeometry x="770" y="1150" width="210" height="50" as="geometry" />
        </mxCell>
        <mxCell id="MAx36Xw8eOmmi-8hxrpc-78" value="Delete personnel" style="ellipse" parent="2" vertex="1">
          <mxGeometry x="860" y="1250" width="210" height="50" as="geometry" />
        </mxCell>
        <mxCell id="MAx36Xw8eOmmi-8hxrpc-89" value="&lt;&lt;include&gt;&gt;" style="dashed=1;endArrow=open;exitX=1;exitY=0;exitDx=0;exitDy=0;" parent="2" source="MAx36Xw8eOmmi-8hxrpc-78" target="3" edge="1">
          <mxGeometry relative="1" as="geometry">
            <mxPoint x="1280" y="869" as="sourcePoint" />
            <mxPoint x="1470" y="29" as="targetPoint" />
          </mxGeometry>
        </mxCell>
        <mxCell id="MAx36Xw8eOmmi-8hxrpc-88" value="&lt;&lt;include&gt;&gt;" style="dashed=1;endArrow=open;exitX=1;exitY=0;exitDx=0;exitDy=0;" parent="2" source="MAx36Xw8eOmmi-8hxrpc-77" target="3" edge="1">
          <mxGeometry relative="1" as="geometry">
            <mxPoint x="1230" y="679" as="sourcePoint" />
            <mxPoint x="1470" y="29" as="targetPoint" />
          </mxGeometry>
        </mxCell>
        <mxCell id="MAx36Xw8eOmmi-8hxrpc-90" value="&lt;&lt;include&gt;&gt;" style="dashed=1;endArrow=open;" parent="2" source="MAx36Xw8eOmmi-8hxrpc-58" target="3" edge="1">
          <mxGeometry relative="1" as="geometry">
            <mxPoint x="1550" y="289" as="sourcePoint" />
            <mxPoint x="1510" y="39" as="targetPoint" />
          </mxGeometry>
        </mxCell>
        <mxCell id="10" value="Student" style="shape=umlActor;" parent="2" vertex="1">
          <mxGeometry x="2052.5" y="224" width="50" height="80" as="geometry" />
        </mxCell>
        <mxCell id="11" style="endArrow=none;" parent="2" source="10" target="4" edge="1">
          <mxGeometry relative="1" as="geometry" />
        </mxCell>
        <mxCell id="12" style="endArrow=none;" parent="2" source="10" target="5" edge="1">
          <mxGeometry relative="1" as="geometry" />
        </mxCell>
        <mxCell id="13" style="endArrow=none;" parent="2" source="10" target="6" edge="1">
          <mxGeometry relative="1" as="geometry" />
        </mxCell>
        <mxCell id="14" style="endArrow=none;" parent="2" source="10" target="7" edge="1">
          <mxGeometry relative="1" as="geometry" />
        </mxCell>
        <mxCell id="15" style="endArrow=none;" parent="2" source="10" target="8" edge="1">
          <mxGeometry relative="1" as="geometry" />
        </mxCell>
        <mxCell id="MAx36Xw8eOmmi-8hxrpc-91" value="&lt;&lt;include&gt;&gt;" style="dashed=1;endArrow=open;" parent="2" source="MAx36Xw8eOmmi-8hxrpc-55" target="3" edge="1">
          <mxGeometry relative="1" as="geometry">
            <mxPoint x="1590" y="989" as="sourcePoint" />
            <mxPoint x="1875" y="239" as="targetPoint" />
          </mxGeometry>
        </mxCell>
        <mxCell id="MAx36Xw8eOmmi-8hxrpc-92" value="&lt;&lt;include&gt;&gt;" style="dashed=1;endArrow=open;" parent="2" source="MAx36Xw8eOmmi-8hxrpc-53" target="3" edge="1">
          <mxGeometry relative="1" as="geometry">
            <mxPoint x="1590" y="1009" as="sourcePoint" />
            <mxPoint x="1510" y="39" as="targetPoint" />
          </mxGeometry>
        </mxCell>
        <mxCell id="MAx36Xw8eOmmi-8hxrpc-58" value="Edit Teacher" style="ellipse" parent="2" vertex="1">
          <mxGeometry x="1790" y="930" width="240" height="50" as="geometry" />
        </mxCell>
        <mxCell id="MAx36Xw8eOmmi-8hxrpc-55" value="delete Teacher" style="ellipse" parent="2" vertex="1">
          <mxGeometry x="1790" y="860" width="240" height="50" as="geometry" />
        </mxCell>
        <mxCell id="MAx36Xw8eOmmi-8hxrpc-53" value="Add Teacher" style="ellipse" parent="2" vertex="1">
          <mxGeometry x="1845" y="800" width="150" height="50" as="geometry" />
        </mxCell>
        <mxCell id="MAx36Xw8eOmmi-8hxrpc-47" value="Personnel" style="shape=umlActor;" parent="2" vertex="1">
          <mxGeometry x="2360" y="1059" width="50" height="80" as="geometry" />
        </mxCell>
        <mxCell id="ezwHLJh4d8pHvEqiGIlD-41" style="endArrow=none;" parent="2" source="8" target="MAx36Xw8eOmmi-8hxrpc-47" edge="1">
          <mxGeometry relative="1" as="geometry">
            <mxPoint x="1179" y="1568" as="sourcePoint" />
            <mxPoint x="1839" y="1453" as="targetPoint" />
          </mxGeometry>
        </mxCell>
        <mxCell id="MAx36Xw8eOmmi-8hxrpc-63" style="endArrow=none;exitX=1;exitY=0.5;exitDx=0;exitDy=0;" parent="2" source="MAx36Xw8eOmmi-8hxrpc-62" target="MAx36Xw8eOmmi-8hxrpc-47" edge="1">
          <mxGeometry relative="1" as="geometry">
            <mxPoint x="3010" y="19" as="sourcePoint" />
            <mxPoint x="3370" y="411" as="targetPoint" />
          </mxGeometry>
        </mxCell>
        <mxCell id="MAx36Xw8eOmmi-8hxrpc-69" style="endArrow=none;" parent="2" source="MAx36Xw8eOmmi-8hxrpc-68" target="MAx36Xw8eOmmi-8hxrpc-47" edge="1">
          <mxGeometry relative="1" as="geometry">
            <mxPoint x="2850" y="-91" as="sourcePoint" />
            <mxPoint x="3240" y="341" as="targetPoint" />
          </mxGeometry>
        </mxCell>
        <mxCell id="MAx36Xw8eOmmi-8hxrpc-65" style="endArrow=none;" parent="2" source="MAx36Xw8eOmmi-8hxrpc-61" target="MAx36Xw8eOmmi-8hxrpc-47" edge="1">
          <mxGeometry relative="1" as="geometry">
            <mxPoint x="2880" y="29" as="sourcePoint" />
            <mxPoint x="3240" y="421" as="targetPoint" />
          </mxGeometry>
        </mxCell>
        <mxCell id="MAx36Xw8eOmmi-8hxrpc-64" style="endArrow=none;" parent="2" source="MAx36Xw8eOmmi-8hxrpc-60" target="MAx36Xw8eOmmi-8hxrpc-47" edge="1">
          <mxGeometry relative="1" as="geometry">
            <mxPoint x="2940" y="49" as="sourcePoint" />
            <mxPoint x="3300" y="441" as="targetPoint" />
          </mxGeometry>
        </mxCell>
        <mxCell id="MAx36Xw8eOmmi-8hxrpc-70" style="endArrow=none;" parent="2" source="MAx36Xw8eOmmi-8hxrpc-66" target="MAx36Xw8eOmmi-8hxrpc-47" edge="1">
          <mxGeometry relative="1" as="geometry">
            <mxPoint x="2800" y="-61" as="sourcePoint" />
            <mxPoint x="3190" y="371" as="targetPoint" />
          </mxGeometry>
        </mxCell>
        <mxCell id="MAx36Xw8eOmmi-8hxrpc-71" style="endArrow=none;" parent="2" source="MAx36Xw8eOmmi-8hxrpc-67" target="MAx36Xw8eOmmi-8hxrpc-47" edge="1">
          <mxGeometry relative="1" as="geometry">
            <mxPoint x="2720" y="-91" as="sourcePoint" />
            <mxPoint x="3110" y="341" as="targetPoint" />
          </mxGeometry>
        </mxCell>
        <mxCell id="MAx36Xw8eOmmi-8hxrpc-74" style="endArrow=none;" parent="2" source="MAx36Xw8eOmmi-8hxrpc-72" target="MAx36Xw8eOmmi-8hxrpc-47" edge="1">
          <mxGeometry relative="1" as="geometry">
            <mxPoint x="2610" y="-241" as="sourcePoint" />
            <mxPoint x="2885" y="316" as="targetPoint" />
          </mxGeometry>
        </mxCell>
        <mxCell id="MAx36Xw8eOmmi-8hxrpc-75" style="endArrow=none;" parent="2" source="MAx36Xw8eOmmi-8hxrpc-73" target="MAx36Xw8eOmmi-8hxrpc-47" edge="1">
          <mxGeometry relative="1" as="geometry">
            <mxPoint x="2060" y="-171" as="sourcePoint" />
            <mxPoint x="2335" y="386" as="targetPoint" />
          </mxGeometry>
        </mxCell>
        <mxCell id="MAx36Xw8eOmmi-8hxrpc-57" style="endArrow=none;" parent="2" source="MAx36Xw8eOmmi-8hxrpc-48" target="MAx36Xw8eOmmi-8hxrpc-47" edge="1">
          <mxGeometry relative="1" as="geometry">
            <mxPoint x="2290" y="169" as="sourcePoint" />
            <mxPoint x="2750" y="-71" as="targetPoint" />
          </mxGeometry>
        </mxCell>
        <mxCell id="MAx36Xw8eOmmi-8hxrpc-51" style="endArrow=none;" parent="2" source="MAx36Xw8eOmmi-8hxrpc-50" target="MAx36Xw8eOmmi-8hxrpc-47" edge="1">
          <mxGeometry relative="1" as="geometry">
            <mxPoint x="2190" y="159" as="sourcePoint" />
            <mxPoint x="2377" y="129" as="targetPoint" />
          </mxGeometry>
        </mxCell>
        <mxCell id="MAx36Xw8eOmmi-8hxrpc-52" style="endArrow=none;" parent="2" source="MAx36Xw8eOmmi-8hxrpc-49" target="MAx36Xw8eOmmi-8hxrpc-47" edge="1">
          <mxGeometry relative="1" as="geometry">
            <mxPoint x="2550" y="49" as="sourcePoint" />
            <mxPoint x="2487" y="169" as="targetPoint" />
          </mxGeometry>
        </mxCell>
        <mxCell id="MAx36Xw8eOmmi-8hxrpc-56" style="endArrow=none;" parent="2" source="MAx36Xw8eOmmi-8hxrpc-55" target="MAx36Xw8eOmmi-8hxrpc-47" edge="1">
          <mxGeometry relative="1" as="geometry">
            <mxPoint x="2370" y="249" as="sourcePoint" />
            <mxPoint x="2557" y="219" as="targetPoint" />
          </mxGeometry>
        </mxCell>
        <mxCell id="MAx36Xw8eOmmi-8hxrpc-54" style="endArrow=none;" parent="2" source="MAx36Xw8eOmmi-8hxrpc-58" target="MAx36Xw8eOmmi-8hxrpc-47" edge="1">
          <mxGeometry relative="1" as="geometry">
            <mxPoint x="2270" y="179" as="sourcePoint" />
            <mxPoint x="2457" y="149" as="targetPoint" />
          </mxGeometry>
        </mxCell>
        <mxCell id="MAx36Xw8eOmmi-8hxrpc-49" value="Delete student" style="ellipse" parent="2" vertex="1">
          <mxGeometry x="1830" y="730" width="210" height="50" as="geometry" />
        </mxCell>
        <mxCell id="MAx36Xw8eOmmi-8hxrpc-48" value="  Edit student" style="ellipse" parent="2" vertex="1">
          <mxGeometry x="1850" y="660" width="210" height="50" as="geometry" />
        </mxCell>
        <mxCell id="MAx36Xw8eOmmi-8hxrpc-50" value="Add student " style="ellipse" parent="2" vertex="1">
          <mxGeometry x="2070" y="369" width="150" height="50" as="geometry" />
        </mxCell>
        <mxCell id="MAx36Xw8eOmmi-8hxrpc-60" value="  Edit student" style="ellipse" parent="2" vertex="1">
          <mxGeometry x="1775" y="1419" width="210" height="50" as="geometry" />
        </mxCell>
        <mxCell id="MAx36Xw8eOmmi-8hxrpc-61" value="Delete student" style="ellipse" parent="2" vertex="1">
          <mxGeometry x="1765" y="1339" width="210" height="50" as="geometry" />
        </mxCell>
        <mxCell id="MAx36Xw8eOmmi-8hxrpc-62" value="Add student " style="ellipse" parent="2" vertex="1">
          <mxGeometry x="1807.5" y="1514" width="150" height="50" as="geometry" />
        </mxCell>
        <mxCell id="MAx36Xw8eOmmi-8hxrpc-66" value="  Edit class" style="ellipse" parent="2" vertex="1">
          <mxGeometry x="1765" y="1209" width="210" height="50" as="geometry" />
        </mxCell>
        <mxCell id="MAx36Xw8eOmmi-8hxrpc-68" value="Add class" style="ellipse" parent="2" vertex="1">
          <mxGeometry x="1795" y="1269" width="150" height="50" as="geometry" />
        </mxCell>
        <mxCell id="MAx36Xw8eOmmi-8hxrpc-67" value="Delete class" style="ellipse" parent="2" vertex="1">
          <mxGeometry x="1785" y="1139" width="210" height="50" as="geometry" />
        </mxCell>
        <mxCell id="MAx36Xw8eOmmi-8hxrpc-72" value="&lt;span style=&quot;line-height: 115%;&quot;&gt;&lt;font style=&quot;font-size: 14px;&quot;&gt;Create Timeslot&lt;/font&gt;&lt;/span&gt;" style="ellipse;whiteSpace=wrap;html=1;" parent="2" vertex="1">
          <mxGeometry x="1790" y="989" width="230" height="50" as="geometry" />
        </mxCell>
        <mxCell id="MAx36Xw8eOmmi-8hxrpc-73" value="&lt;span style=&quot;line-height: 115%;&quot;&gt;&lt;font style=&quot;font-size: 13px;&quot;&gt;Schedule classes&amp;nbsp;&lt;/font&gt;&lt;/span&gt;" style="ellipse;whiteSpace=wrap;html=1;" parent="2" vertex="1">
          <mxGeometry x="1795" y="1059" width="220" height="60" as="geometry" />
        </mxCell>
        <mxCell id="MAx36Xw8eOmmi-8hxrpc-93" value="&lt;&lt;include&gt;&gt;" style="dashed=1;endArrow=open;" parent="2" source="MAx36Xw8eOmmi-8hxrpc-49" target="3" edge="1">
          <mxGeometry relative="1" as="geometry">
            <mxPoint x="1630" y="1079" as="sourcePoint" />
            <mxPoint x="1915" y="329" as="targetPoint" />
          </mxGeometry>
        </mxCell>
        <mxCell id="ezwHLJh4d8pHvEqiGIlD-22" value="&lt;&lt;include&gt;&gt;" style="dashed=1;endArrow=open;" parent="2" source="MAx36Xw8eOmmi-8hxrpc-48" target="3" edge="1">
          <mxGeometry relative="1" as="geometry">
            <mxPoint x="1550" y="679" as="sourcePoint" />
            <mxPoint x="1847" y="-584" as="targetPoint" />
          </mxGeometry>
        </mxCell>
        <mxCell id="ezwHLJh4d8pHvEqiGIlD-24" value="&lt;&lt;include&gt;&gt;" style="dashed=1;endArrow=open;" parent="2" source="MAx36Xw8eOmmi-8hxrpc-50" target="3" edge="1">
          <mxGeometry relative="1" as="geometry">
            <mxPoint x="1610" y="639" as="sourcePoint" />
            <mxPoint x="1907" y="-624" as="targetPoint" />
          </mxGeometry>
        </mxCell>
        <mxCell id="ezwHLJh4d8pHvEqiGIlD-37" value="&lt;&lt;include&gt;&gt;" style="dashed=1;endArrow=open;" parent="2" source="MAx36Xw8eOmmi-8hxrpc-60" target="3" edge="1">
          <mxGeometry relative="1" as="geometry">
            <mxPoint x="2770" y="1189" as="sourcePoint" />
            <mxPoint x="1736" y="-23" as="targetPoint" />
          </mxGeometry>
        </mxCell>
        <mxCell id="ezwHLJh4d8pHvEqiGIlD-36" value="&lt;&lt;include&gt;&gt;" style="dashed=1;endArrow=open;" parent="2" source="MAx36Xw8eOmmi-8hxrpc-61" target="3" edge="1">
          <mxGeometry relative="1" as="geometry">
            <mxPoint x="2670" y="1159" as="sourcePoint" />
            <mxPoint x="1636" y="-53" as="targetPoint" />
          </mxGeometry>
        </mxCell>
        <mxCell id="ezwHLJh4d8pHvEqiGIlD-35" value="&lt;&lt;include&gt;&gt;" style="dashed=1;endArrow=open;" parent="2" source="MAx36Xw8eOmmi-8hxrpc-61" target="3" edge="1">
          <mxGeometry relative="1" as="geometry">
            <mxPoint x="2670" y="1219" as="sourcePoint" />
            <mxPoint x="1636" y="7" as="targetPoint" />
          </mxGeometry>
        </mxCell>
        <mxCell id="ezwHLJh4d8pHvEqiGIlD-33" value="&lt;&lt;include&gt;&gt;" style="dashed=1;endArrow=open;" parent="2" source="MAx36Xw8eOmmi-8hxrpc-61" target="3" edge="1">
          <mxGeometry relative="1" as="geometry">
            <mxPoint x="2590" y="1159" as="sourcePoint" />
            <mxPoint x="2887" y="-104" as="targetPoint" />
          </mxGeometry>
        </mxCell>
        <mxCell id="ezwHLJh4d8pHvEqiGIlD-38" value="&lt;&lt;include&gt;&gt;" style="dashed=1;endArrow=open;" parent="2" source="MAx36Xw8eOmmi-8hxrpc-62" target="3" edge="1">
          <mxGeometry relative="1" as="geometry">
            <mxPoint x="2760" y="1269" as="sourcePoint" />
            <mxPoint x="1726" y="57" as="targetPoint" />
          </mxGeometry>
        </mxCell>
        <mxCell id="ezwHLJh4d8pHvEqiGIlD-29" value="&lt;&lt;include&gt;&gt;" style="dashed=1;endArrow=open;" parent="2" source="MAx36Xw8eOmmi-8hxrpc-66" target="3" edge="1">
          <mxGeometry relative="1" as="geometry">
            <mxPoint x="2330" y="949" as="sourcePoint" />
            <mxPoint x="2627" y="-314" as="targetPoint" />
          </mxGeometry>
        </mxCell>
        <mxCell id="ezwHLJh4d8pHvEqiGIlD-28" value="&lt;&lt;include&gt;&gt;" style="dashed=1;endArrow=open;" parent="2" source="MAx36Xw8eOmmi-8hxrpc-66" target="3" edge="1">
          <mxGeometry relative="1" as="geometry">
            <mxPoint x="2300" y="1019" as="sourcePoint" />
            <mxPoint x="2607" y="-334" as="targetPoint" />
          </mxGeometry>
        </mxCell>
        <mxCell id="ezwHLJh4d8pHvEqiGIlD-32" value="&lt;&lt;include&gt;&gt;" style="dashed=1;endArrow=open;" parent="2" source="MAx36Xw8eOmmi-8hxrpc-68" target="3" edge="1">
          <mxGeometry relative="1" as="geometry">
            <mxPoint x="2540" y="1149" as="sourcePoint" />
            <mxPoint x="2837" y="-114" as="targetPoint" />
          </mxGeometry>
        </mxCell>
        <mxCell id="ezwHLJh4d8pHvEqiGIlD-30" value="&lt;&lt;include&gt;&gt;" style="dashed=1;endArrow=open;" parent="2" source="MAx36Xw8eOmmi-8hxrpc-68" target="3" edge="1">
          <mxGeometry relative="1" as="geometry">
            <mxPoint x="2480" y="1159" as="sourcePoint" />
            <mxPoint x="2777" y="-104" as="targetPoint" />
          </mxGeometry>
        </mxCell>
        <mxCell id="ezwHLJh4d8pHvEqiGIlD-27" value="&lt;&lt;include&gt;&gt;" style="dashed=1;endArrow=open;" parent="2" source="MAx36Xw8eOmmi-8hxrpc-67" target="3" edge="1">
          <mxGeometry relative="1" as="geometry">
            <mxPoint x="2110" y="929" as="sourcePoint" />
            <mxPoint x="2407" y="-334" as="targetPoint" />
          </mxGeometry>
        </mxCell>
        <mxCell id="ezwHLJh4d8pHvEqiGIlD-26" value="&lt;&lt;include&gt;&gt;" style="dashed=1;endArrow=open;" parent="2" source="MAx36Xw8eOmmi-8hxrpc-72" target="3" edge="1">
          <mxGeometry relative="1" as="geometry">
            <mxPoint x="1900" y="989" as="sourcePoint" />
            <mxPoint x="2197" y="-274" as="targetPoint" />
          </mxGeometry>
        </mxCell>
        <mxCell id="ezwHLJh4d8pHvEqiGIlD-25" value="&lt;&lt;include&gt;&gt;" style="dashed=1;endArrow=open;" parent="2" source="MAx36Xw8eOmmi-8hxrpc-73" target="3" edge="1">
          <mxGeometry relative="1" as="geometry">
            <mxPoint x="1710" y="959" as="sourcePoint" />
            <mxPoint x="2007" y="-304" as="targetPoint" />
          </mxGeometry>
        </mxCell>
        <mxCell id="ezwHLJh4d8pHvEqiGIlD-46" value="&lt;&lt;include&gt;&gt;" style="dashed=1;endArrow=open;" parent="2" source="3" target="MAx36Xw8eOmmi-8hxrpc-33" edge="1">
          <mxGeometry relative="1" as="geometry">
            <mxPoint x="1353" y="992" as="sourcePoint" />
            <mxPoint x="1202" y="469" as="targetPoint" />
          </mxGeometry>
        </mxCell>
        <mxCell id="ezwHLJh4d8pHvEqiGIlD-47" style="endArrow=none;" parent="2" source="MAx36Xw8eOmmi-8hxrpc-53" target="MAx36Xw8eOmmi-8hxrpc-47" edge="1">
          <mxGeometry relative="1" as="geometry">
            <mxPoint x="2080" y="724" as="sourcePoint" />
            <mxPoint x="2370" y="1078" as="targetPoint" />
          </mxGeometry>
        </mxCell>
        <mxCell id="ezwHLJh4d8pHvEqiGIlD-50" style="endArrow=none;" parent="2" source="10" target="MAx36Xw8eOmmi-8hxrpc-50" edge="1">
          <mxGeometry relative="1" as="geometry">
            <mxPoint x="2510" y="261" as="sourcePoint" />
            <mxPoint x="2397.69782959457" y="411.4739082912274" as="targetPoint" />
          </mxGeometry>
        </mxCell>
        <mxCell id="KbP9Xefk_zUgVtgYOlNQ-24" value="Record Attendance" style="ellipse" parent="2" vertex="1">
          <mxGeometry x="700" y="359" width="240" height="50" as="geometry" />
        </mxCell>
        <mxCell id="KbP9Xefk_zUgVtgYOlNQ-27" value="&lt;&lt;include&gt;&gt;" style="dashed=1;endArrow=open;exitX=0.5;exitY=1;exitDx=0;exitDy=0;entryX=0;entryY=0;entryDx=0;entryDy=0;" parent="2" source="KbP9Xefk_zUgVtgYOlNQ-24" target="3" edge="1">
          <mxGeometry relative="1" as="geometry">
            <mxPoint x="1352" y="992" as="sourcePoint" />
            <mxPoint x="1040" y="759" as="targetPoint" />
          </mxGeometry>
        </mxCell>
        <mxCell id="KbP9Xefk_zUgVtgYOlNQ-37" value="Delete Book" style="ellipse" parent="2" vertex="1">
          <mxGeometry x="900" y="1469" width="210" height="50" as="geometry" />
        </mxCell>
        <mxCell id="KbP9Xefk_zUgVtgYOlNQ-36" value="Update Book" style="ellipse" parent="2" vertex="1">
          <mxGeometry x="880" y="1360" width="210" height="50" as="geometry" />
        </mxCell>
        <mxCell id="KbP9Xefk_zUgVtgYOlNQ-49" value="&lt;&lt;include&gt;&gt;" style="dashed=1;endArrow=open;exitX=1;exitY=0.5;exitDx=0;exitDy=0;entryX=0;entryY=1;entryDx=0;entryDy=0;" parent="2" source="KbP9Xefk_zUgVtgYOlNQ-36" target="3" edge="1">
          <mxGeometry relative="1" as="geometry">
            <mxPoint x="1120" y="1504" as="sourcePoint" />
            <mxPoint x="1320" y="1009" as="targetPoint" />
          </mxGeometry>
        </mxCell>
        <mxCell id="UMZnr6aNTW1JHY4my7tG-20" value="Admin" style="shape=umlActor;" vertex="1" parent="2">
          <mxGeometry x="280" y="845" width="50" height="80" as="geometry" />
        </mxCell>
        <mxCell id="MAx36Xw8eOmmi-8hxrpc-101" value="" style="ellipse;whiteSpace=wrap;html=1;align=center;aspect=fixed;fillColor=none;strokeColor=none;resizable=0;perimeter=centerPerimeter;rotatable=0;allowArrows=0;points=[];outlineConnect=1;" parent="2" vertex="1">
          <mxGeometry x="2280" y="149" width="10" height="10" as="geometry" />
        </mxCell>
        <mxCell id="KbP9Xefk_zUgVtgYOlNQ-25" value="" style="endArrow=none;html=1;rounded=0;" parent="2" target="MAx36Xw8eOmmi-8hxrpc-20" edge="1" source="KbP9Xefk_zUgVtgYOlNQ-24">
          <mxGeometry width="50" height="50" relative="1" as="geometry">
            <mxPoint x="1484" y="361" as="sourcePoint" />
            <mxPoint x="1870" y="229" as="targetPoint" />
          </mxGeometry>
        </mxCell>
        <mxCell id="KbP9Xefk_zUgVtgYOlNQ-48" value="&lt;&lt;include&gt;&gt;" style="dashed=1;endArrow=open;exitX=1;exitY=0.5;exitDx=0;exitDy=0;" parent="2" source="KbP9Xefk_zUgVtgYOlNQ-37" edge="1" target="3">
          <mxGeometry relative="1" as="geometry">
            <mxPoint x="1799" y="1646" as="sourcePoint" />
            <mxPoint x="1980" y="999" as="targetPoint" />
          </mxGeometry>
        </mxCell>
        <mxCell id="UMZnr6aNTW1JHY4my7tG-22" value="Create Article" style="ellipse" vertex="1" parent="2">
          <mxGeometry x="410" y="870" width="240" height="50" as="geometry" />
        </mxCell>
        <mxCell id="UMZnr6aNTW1JHY4my7tG-25" style="endArrow=none;" edge="1" parent="2" source="UMZnr6aNTW1JHY4my7tG-22" target="UMZnr6aNTW1JHY4my7tG-20">
          <mxGeometry relative="1" as="geometry">
            <mxPoint x="1020" y="1160" as="sourcePoint" />
            <mxPoint x="880" y="1172" as="targetPoint" />
          </mxGeometry>
        </mxCell>
        <mxCell id="UMZnr6aNTW1JHY4my7tG-26" value="&lt;&lt;include&gt;&gt;" style="dashed=1;endArrow=open;" edge="1" parent="2" source="UMZnr6aNTW1JHY4my7tG-22" target="3">
          <mxGeometry relative="1" as="geometry">
            <mxPoint x="700" y="930" as="sourcePoint" />
            <mxPoint x="857" y="770" as="targetPoint" />
          </mxGeometry>
        </mxCell>
        <mxCell id="KbP9Xefk_zUgVtgYOlNQ-38" value="View Book Information" style="ellipse" parent="2" vertex="1">
          <mxGeometry x="1440" y="2220" width="210" height="50" as="geometry" />
        </mxCell>
        <mxCell id="MAx36Xw8eOmmi-8hxrpc-79" value="Add personnel" style="ellipse" parent="2" vertex="1">
          <mxGeometry x="1640" y="2170" width="150" height="50" as="geometry" />
        </mxCell>
        <mxCell id="KbP9Xefk_zUgVtgYOlNQ-20" value="Create Roles" style="ellipse" parent="2" vertex="1">
          <mxGeometry x="1790" y="2130" width="210" height="50" as="geometry" />
        </mxCell>
        <mxCell id="KbP9Xefk_zUgVtgYOlNQ-29" value="Assign Roles" style="ellipse" parent="2" vertex="1">
          <mxGeometry x="1970" y="2080" width="210" height="50" as="geometry" />
        </mxCell>
        <mxCell id="KbP9Xefk_zUgVtgYOlNQ-35" value="Add Book" style="ellipse" parent="2" vertex="1">
          <mxGeometry x="1230" y="2230" width="210" height="50" as="geometry" />
        </mxCell>
        <mxCell id="KbP9Xefk_zUgVtgYOlNQ-45" value="" style="endArrow=none;html=1;rounded=0;exitX=1;exitY=0.5;exitDx=0;exitDy=0;entryX=-0.369;entryY=0.974;entryDx=0;entryDy=0;entryPerimeter=0;" parent="2" source="KbP9Xefk_zUgVtgYOlNQ-38" target="MAx36Xw8eOmmi-8hxrpc-47" edge="1">
          <mxGeometry width="50" height="50" relative="1" as="geometry">
            <mxPoint x="990" y="1759" as="sourcePoint" />
            <mxPoint x="1040" y="1709" as="targetPoint" />
          </mxGeometry>
        </mxCell>
        <mxCell id="KbP9Xefk_zUgVtgYOlNQ-47" value="&lt;&lt;include&gt;&gt;" style="dashed=1;endArrow=open;exitX=1;exitY=0;exitDx=0;exitDy=0;entryX=0.5;entryY=1;entryDx=0;entryDy=0;" parent="2" source="KbP9Xefk_zUgVtgYOlNQ-38" target="3" edge="1">
          <mxGeometry relative="1" as="geometry">
            <mxPoint x="1169" y="1226" as="sourcePoint" />
            <mxPoint x="1296" y="998" as="targetPoint" />
          </mxGeometry>
        </mxCell>
        <mxCell id="MAx36Xw8eOmmi-8hxrpc-87" value="&lt;&lt;include&gt;&gt;" style="dashed=1;endArrow=open;exitX=0.5;exitY=0;exitDx=0;exitDy=0;" parent="2" source="MAx36Xw8eOmmi-8hxrpc-79" target="3" edge="1">
          <mxGeometry relative="1" as="geometry">
            <mxPoint x="1850" y="588" as="sourcePoint" />
            <mxPoint x="2140" y="-72" as="targetPoint" />
          </mxGeometry>
        </mxCell>
        <mxCell id="ezwHLJh4d8pHvEqiGIlD-52" style="endArrow=none;exitX=1;exitY=0.5;exitDx=0;exitDy=0;" parent="2" source="MAx36Xw8eOmmi-8hxrpc-79" target="MAx36Xw8eOmmi-8hxrpc-47" edge="1">
          <mxGeometry relative="1" as="geometry">
            <mxPoint x="2430" y="1574" as="sourcePoint" />
            <mxPoint x="1480" y="1095" as="targetPoint" />
          </mxGeometry>
        </mxCell>
        <mxCell id="KbP9Xefk_zUgVtgYOlNQ-23" value="" style="endArrow=none;html=1;rounded=0;entryX=0;entryY=1;entryDx=0;entryDy=0;entryPerimeter=0;exitX=1;exitY=0.5;exitDx=0;exitDy=0;" parent="2" source="KbP9Xefk_zUgVtgYOlNQ-20" target="MAx36Xw8eOmmi-8hxrpc-47" edge="1">
          <mxGeometry width="50" height="50" relative="1" as="geometry">
            <mxPoint x="1900" y="1459" as="sourcePoint" />
            <mxPoint x="1950" y="1409" as="targetPoint" />
          </mxGeometry>
        </mxCell>
        <mxCell id="KbP9Xefk_zUgVtgYOlNQ-28" value="&lt;&lt;include&gt;&gt;" style="dashed=1;endArrow=open;exitX=0;exitY=0;exitDx=0;exitDy=0;entryX=0.5;entryY=1;entryDx=0;entryDy=0;" parent="2" source="KbP9Xefk_zUgVtgYOlNQ-20" target="3" edge="1">
          <mxGeometry relative="1" as="geometry">
            <mxPoint x="1129" y="1156" as="sourcePoint" />
            <mxPoint x="1287" y="997" as="targetPoint" />
          </mxGeometry>
        </mxCell>
        <mxCell id="KbP9Xefk_zUgVtgYOlNQ-30" value="" style="endArrow=none;html=1;rounded=0;exitX=1;exitY=0.5;exitDx=0;exitDy=0;entryX=1;entryY=1;entryDx=0;entryDy=0;entryPerimeter=0;" parent="2" source="KbP9Xefk_zUgVtgYOlNQ-29" target="MAx36Xw8eOmmi-8hxrpc-47" edge="1">
          <mxGeometry width="50" height="50" relative="1" as="geometry">
            <mxPoint x="1900" y="1599" as="sourcePoint" />
            <mxPoint x="1950" y="1549" as="targetPoint" />
          </mxGeometry>
        </mxCell>
        <mxCell id="KbP9Xefk_zUgVtgYOlNQ-32" value="&lt;&lt;include&gt;&gt;" style="dashed=1;endArrow=open;exitX=0;exitY=0.5;exitDx=0;exitDy=0;entryX=0.584;entryY=1.016;entryDx=0;entryDy=0;entryPerimeter=0;" parent="2" source="KbP9Xefk_zUgVtgYOlNQ-29" target="3" edge="1">
          <mxGeometry relative="1" as="geometry">
            <mxPoint x="1741" y="1616" as="sourcePoint" />
            <mxPoint x="1310" y="999" as="targetPoint" />
          </mxGeometry>
        </mxCell>
        <mxCell id="KbP9Xefk_zUgVtgYOlNQ-43" value="" style="endArrow=none;html=1;rounded=0;exitX=1;exitY=0.5;exitDx=0;exitDy=0;entryX=0;entryY=1;entryDx=0;entryDy=0;entryPerimeter=0;" parent="2" source="KbP9Xefk_zUgVtgYOlNQ-35" target="MAx36Xw8eOmmi-8hxrpc-47" edge="1">
          <mxGeometry width="50" height="50" relative="1" as="geometry">
            <mxPoint x="1440" y="1539" as="sourcePoint" />
            <mxPoint x="1490" y="1489" as="targetPoint" />
          </mxGeometry>
        </mxCell>
        <mxCell id="KbP9Xefk_zUgVtgYOlNQ-50" value="&lt;&lt;include&gt;&gt;" style="dashed=1;endArrow=open;exitX=0.5;exitY=0;exitDx=0;exitDy=0;" parent="2" source="KbP9Xefk_zUgVtgYOlNQ-35" edge="1" target="3">
          <mxGeometry relative="1" as="geometry">
            <mxPoint x="1799" y="1646" as="sourcePoint" />
            <mxPoint x="1980" y="999" as="targetPoint" />
          </mxGeometry>
        </mxCell>
        <mxCell id="MAx36Xw8eOmmi-8hxrpc-76" value="Manager" style="shape=umlActor;" parent="1" vertex="1">
          <mxGeometry x="-120" y="2200" width="50" height="80" as="geometry" />
        </mxCell>
        <mxCell id="MAx36Xw8eOmmi-8hxrpc-86" style="endArrow=none;exitX=0;exitY=0.5;exitDx=0;exitDy=0;entryX=1;entryY=0.3333333333333333;entryDx=0;entryDy=0;entryPerimeter=0;" parent="1" source="MAx36Xw8eOmmi-8hxrpc-77" target="MAx36Xw8eOmmi-8hxrpc-76" edge="1">
          <mxGeometry relative="1" as="geometry">
            <mxPoint x="26" y="1809" as="sourcePoint" />
            <mxPoint x="486" y="1569" as="targetPoint" />
          </mxGeometry>
        </mxCell>
        <mxCell id="MAx36Xw8eOmmi-8hxrpc-81" style="endArrow=none;exitX=0;exitY=0.5;exitDx=0;exitDy=0;entryX=1;entryY=0.3333333333333333;entryDx=0;entryDy=0;entryPerimeter=0;" parent="1" source="MAx36Xw8eOmmi-8hxrpc-78" target="MAx36Xw8eOmmi-8hxrpc-76" edge="1">
          <mxGeometry relative="1" as="geometry">
            <mxPoint x="316" y="1719" as="sourcePoint" />
            <mxPoint x="-164" y="1426" as="targetPoint" />
          </mxGeometry>
        </mxCell>
        <mxCell id="KbP9Xefk_zUgVtgYOlNQ-22" value="" style="endArrow=none;html=1;rounded=0;exitX=0;exitY=0.5;exitDx=0;exitDy=0;entryX=1;entryY=0.3333333333333333;entryDx=0;entryDy=0;entryPerimeter=0;" parent="1" source="KbP9Xefk_zUgVtgYOlNQ-20" target="MAx36Xw8eOmmi-8hxrpc-76" edge="1">
          <mxGeometry width="50" height="50" relative="1" as="geometry">
            <mxPoint x="610" y="1639" as="sourcePoint" />
            <mxPoint x="660" y="1589" as="targetPoint" />
          </mxGeometry>
        </mxCell>
        <mxCell id="KbP9Xefk_zUgVtgYOlNQ-31" value="" style="endArrow=none;html=1;rounded=0;exitX=0;exitY=0.5;exitDx=0;exitDy=0;entryX=1;entryY=1;entryDx=0;entryDy=0;entryPerimeter=0;" parent="1" source="KbP9Xefk_zUgVtgYOlNQ-29" target="MAx36Xw8eOmmi-8hxrpc-76" edge="1">
          <mxGeometry width="50" height="50" relative="1" as="geometry">
            <mxPoint x="670" y="1749" as="sourcePoint" />
            <mxPoint x="720" y="1699" as="targetPoint" />
          </mxGeometry>
        </mxCell>
        <mxCell id="KbP9Xefk_zUgVtgYOlNQ-40" value="" style="endArrow=none;html=1;rounded=0;exitX=0.5;exitY=0;exitDx=0;exitDy=0;entryX=1;entryY=0.3333333333333333;entryDx=0;entryDy=0;entryPerimeter=0;" parent="1" source="KbP9Xefk_zUgVtgYOlNQ-35" target="MAx36Xw8eOmmi-8hxrpc-76" edge="1">
          <mxGeometry width="50" height="50" relative="1" as="geometry">
            <mxPoint x="570" y="1749" as="sourcePoint" />
            <mxPoint x="620" y="1699" as="targetPoint" />
          </mxGeometry>
        </mxCell>
        <mxCell id="KbP9Xefk_zUgVtgYOlNQ-41" value="" style="endArrow=none;html=1;rounded=0;exitX=0;exitY=0.5;exitDx=0;exitDy=0;entryX=1;entryY=1;entryDx=0;entryDy=0;entryPerimeter=0;" parent="1" source="KbP9Xefk_zUgVtgYOlNQ-36" target="MAx36Xw8eOmmi-8hxrpc-76" edge="1">
          <mxGeometry width="50" height="50" relative="1" as="geometry">
            <mxPoint x="500" y="1619" as="sourcePoint" />
            <mxPoint x="550" y="1569" as="targetPoint" />
          </mxGeometry>
        </mxCell>
        <mxCell id="KbP9Xefk_zUgVtgYOlNQ-42" value="" style="endArrow=none;html=1;rounded=0;exitX=0;exitY=0.5;exitDx=0;exitDy=0;entryX=1;entryY=1;entryDx=0;entryDy=0;entryPerimeter=0;" parent="1" source="KbP9Xefk_zUgVtgYOlNQ-37" target="MAx36Xw8eOmmi-8hxrpc-76" edge="1">
          <mxGeometry width="50" height="50" relative="1" as="geometry">
            <mxPoint x="500" y="1619" as="sourcePoint" />
            <mxPoint x="550" y="1569" as="targetPoint" />
          </mxGeometry>
        </mxCell>
        <mxCell id="KbP9Xefk_zUgVtgYOlNQ-46" value="" style="endArrow=none;html=1;rounded=0;exitX=0;exitY=0.5;exitDx=0;exitDy=0;entryX=0;entryY=1;entryDx=0;entryDy=0;entryPerimeter=0;" parent="1" source="KbP9Xefk_zUgVtgYOlNQ-38" target="MAx36Xw8eOmmi-8hxrpc-76" edge="1">
          <mxGeometry width="50" height="50" relative="1" as="geometry">
            <mxPoint x="524" y="2105" as="sourcePoint" />
            <mxPoint x="290" y="1609" as="targetPoint" />
          </mxGeometry>
        </mxCell>
        <mxCell id="MAx36Xw8eOmmi-8hxrpc-80" style="endArrow=none;entryX=1;entryY=0.3333333333333333;entryDx=0;entryDy=0;entryPerimeter=0;exitX=0;exitY=0.5;exitDx=0;exitDy=0;" parent="1" source="MAx36Xw8eOmmi-8hxrpc-79" target="MAx36Xw8eOmmi-8hxrpc-76" edge="1">
          <mxGeometry relative="1" as="geometry">
            <mxPoint x="626" y="1738" as="sourcePoint" />
            <mxPoint x="813" y="1708" as="targetPoint" />
          </mxGeometry>
        </mxCell>
      </root>
    </mxGraphModel>
  </diagram>
</mxfile>
